<?xml version="1.0" encoding="UTF-8"?> <svg xmlns="http://www.w3.org/2000/svg" xmlns:xlink="http://www.w3.org/1999/xlink" width="540" height="540" viewBox="0 0 540 540"><defs><style> .cls-1 { fill: none; } .cls-2 { fill: #d6e1eb; } .cls-3 { fill: #ebf0f5; } .cls-11, .cls-4 { fill: #acc4d7; } .cls-5 { clip-path: url(#clip-path); } .cls-6 { fill: #72839b; } .cls-10, .cls-7 { fill: #fff; } .cls-8 { fill: #d1d3d4; } .cls-9 { fill: #d0d2d3; } .cls-10 { stroke: #d1d3d4; stroke-linecap: round; stroke-miterlimit: 10; stroke-width: 0.35px; } .cls-11 { font-size: 27.89px; font-family: Futura-CondensedExtraBold, Futura; font-weight: 800; } </style><clipPath id="clip-path"><ellipse class="cls-1" cx="193.91" cy="183.51" rx="155.56" ry="155.27"></ellipse></clipPath></defs><g id="Illos"><g><rect class="cls-2" x="-5" y="-5" width="550" height="548.99"></rect><rect class="cls-3" x="-5" y="268.49" width="550" height="276.51"></rect><g><ellipse class="cls-4" cx="193.91" cy="183.51" rx="155.56" ry="155.27"></ellipse><g class="cls-5"><g><polygon class="cls-6" points="167.77 344.64 138.21 344.64 138.21 107.36 167.77 134.07 167.77 344.64"></polygon><polygon class="cls-7" points="196.39 133.45 166.52 133.45 138.21 107.36 168.7 107.36 196.39 133.45"></polygon><polygon class="cls-8" points="166.5 344.64 196.37 344.72 196.37 133.45 166.5 133.36 166.5 344.64"></polygon><path class="cls-8" d="M161.54,123.38h15.51a0,0,0,0,0,0,0V89.88a0,0,0,0,0,0,0H161.54Z"></path><polygon class="cls-6" points="161.54 89.8 161.54 123.34 143.49 107.36 161.54 89.8"></polygon><rect class="cls-7" x="236.84" y="221.34" width="70.07" height="123.23"></rect><rect class="cls-6" x="228.41" y="221.34" width="32.77" height="123.3"></rect><rect class="cls-7" x="256.11" y="214.14" width="38.37" height="7.76"></rect><rect class="cls-6" x="246.27" y="214.14" width="21.69" height="7.76"></rect><rect class="cls-7" x="94.02" y="223.51" width="60.96" height="119.39"></rect><polygon class="cls-6" points="80.91 343.28 110.94 352.05 110.94 223.51 80.91 223.51 80.91 343.28"></polygon><rect class="cls-7" x="99.45" y="214.61" width="45.43" height="9.11"></rect><rect class="cls-6" x="99.45" y="214.61" width="22.13" height="9.24"></rect><g><path class="cls-6" d="M190.21,160.78h3.58a0,0,0,0,0,0-.05V136.18a0,0,0,0,0,0,0h-3.58a0,0,0,0,0,0,0v24.55A0,0,0,0,0,190.21,160.78Z"></path><path class="cls-6" d="M183.8,160.78h3.57a0,0,0,0,0,0-.05V136.18a0,0,0,0,0,0,0H183.8a0,0,0,0,0-.05,0v24.55A0,0,0,0,0,183.8,160.78Z"></path><path class="cls-6" d="M176.69,160.78h3.58a.05.05,0,0,0,0-.05V136.18s0,0,0,0h-3.58a0,0,0,0,0,0,0v24.55A0,0,0,0,0,176.69,160.78Z"></path><path class="cls-6" d="M170.28,160.78h3.57a0,0,0,0,0,.05-.05V136.18a0,0,0,0,0-.05,0h-3.57s-.05,0-.05,0v24.55A.05.05,0,0,0,170.28,160.78Z"></path></g><rect class="cls-9" x="264.63" y="224.63" width="5.71" height="17.38"></rect><rect class="cls-8" x="264.63" y="246.68" width="5.71" height="4.99"></rect><rect class="cls-8" x="264.63" y="256.33" width="5.71" height="4.99"></rect><rect class="cls-8" x="264.63" y="265.99" width="5.71" height="4.99"></rect><rect class="cls-8" x="264.63" y="275.65" width="5.71" height="4.99"></rect><rect class="cls-8" x="264.63" y="285.31" width="5.71" height="4.99"></rect><rect class="cls-8" x="264.63" y="294.96" width="5.71" height="4.99"></rect><rect class="cls-8" x="264.63" y="304.62" width="5.71" height="4.99"></rect><rect class="cls-8" x="264.63" y="314.28" width="5.71" height="4.99"></rect><rect class="cls-9" x="276.01" y="224.63" width="5.71" height="17.38"></rect><rect class="cls-8" x="276.01" y="246.68" width="5.71" height="4.99"></rect><rect class="cls-8" x="276.01" y="256.33" width="5.71" height="4.99"></rect><rect class="cls-8" x="276.01" y="265.99" width="5.71" height="4.99"></rect><rect class="cls-8" x="276.01" y="275.65" width="5.71" height="4.99"></rect><rect class="cls-8" x="276.01" y="285.31" width="5.71" height="4.99"></rect><rect class="cls-8" x="276.01" y="294.96" width="5.71" height="4.99"></rect><rect class="cls-8" x="276.01" y="304.62" width="5.71" height="4.99"></rect><rect class="cls-8" x="276.01" y="314.28" width="5.71" height="4.99"></rect><rect class="cls-9" x="287.46" y="224.63" width="5.71" height="17.38"></rect><rect class="cls-8" x="287.46" y="246.68" width="5.71" height="4.99"></rect><rect class="cls-8" x="287.46" y="256.33" width="5.71" height="4.99"></rect><rect class="cls-8" x="287.46" y="265.99" width="5.71" height="4.99"></rect><rect class="cls-8" x="287.46" y="275.65" width="5.71" height="4.99"></rect><rect class="cls-8" x="287.46" y="285.31" width="5.71" height="4.99"></rect><rect class="cls-8" x="287.46" y="294.96" width="5.71" height="4.99"></rect><rect class="cls-8" x="287.46" y="304.62" width="5.71" height="4.99"></rect><rect class="cls-8" x="287.46" y="314.28" width="5.71" height="4.99"></rect><rect class="cls-9" x="298.7" y="224.63" width="5.71" height="17.38"></rect><rect class="cls-8" x="298.7" y="246.68" width="5.71" height="4.99"></rect><rect class="cls-8" x="298.7" y="256.33" width="5.71" height="4.99"></rect><rect class="cls-8" x="298.7" y="265.99" width="5.71" height="4.99"></rect><rect class="cls-8" x="298.7" y="275.65" width="5.71" height="4.99"></rect><rect class="cls-8" x="298.7" y="285.31" width="5.71" height="4.99"></rect><rect class="cls-8" x="298.7" y="294.96" width="5.71" height="4.99"></rect><rect class="cls-8" x="298.7" y="304.62" width="5.71" height="4.99"></rect><rect class="cls-8" x="298.7" y="314.28" width="5.71" height="4.99"></rect><rect class="cls-8" x="264.63" y="323.96" width="5.71" height="4.99"></rect><rect class="cls-8" x="264.63" y="333.62" width="5.71" height="4.99"></rect><rect class="cls-8" x="276.01" y="323.96" width="5.71" height="4.99"></rect><rect class="cls-8" x="276.01" y="333.62" width="5.71" height="4.99"></rect><rect class="cls-8" x="287.46" y="323.96" width="5.71" height="4.99"></rect><rect class="cls-8" x="287.46" y="333.62" width="5.71" height="4.99"></rect><rect class="cls-8" x="298.7" y="323.96" width="5.71" height="4.99"></rect><rect class="cls-8" x="298.7" y="333.62" width="5.71" height="4.99"></rect><rect class="cls-9" x="136.58" y="234.19" width="12.38" height="5.02"></rect><rect class="cls-9" x="117.23" y="244.23" width="12.38" height="5.02"></rect><rect class="cls-9" x="136.58" y="258.14" width="12.38" height="5.02"></rect><rect class="cls-9" x="115.3" y="267.79" width="12.38" height="5.02"></rect><rect class="cls-9" x="127.13" y="281.69" width="22.22" height="4.83"></rect><rect class="cls-9" x="136.58" y="295.97" width="12.38" height="5.02"></rect><rect class="cls-9" x="117.23" y="306.01" width="12.38" height="5.02"></rect><rect class="cls-9" x="136.58" y="319.92" width="12.38" height="5.02"></rect><rect class="cls-9" x="115.3" y="329.57" width="12.38" height="5.02"></rect><rect class="cls-8" x="203.06" y="271.03" width="46.29" height="74.31"></rect><polygon class="cls-6" points="196.13 344.47 216.3 344.47 216.3 271.03 196.67 271.03 196.13 344.47"></polygon><g><rect class="cls-6" x="219.12" y="274.35" width="27.08" height="3.54"></rect><rect class="cls-6" x="219.12" y="285.28" width="27.08" height="3.54"></rect><rect class="cls-6" x="219.06" y="296.6" width="27.08" height="5.06"></rect><rect class="cls-6" x="219.06" y="310.9" width="27.08" height="5.06"></rect><rect class="cls-6" x="219.06" y="327.88" width="27.08" height="5.06"></rect></g><g><g><path class="cls-10" d="M188.86,188.3h4.81a.12.12,0,0,0,.12-.12V167.56a.11.11,0,0,0-.12-.11h-4.81a.11.11,0,0,0-.12.11v20.62A.12.12,0,0,0,188.86,188.3Z"></path><path class="cls-10" d="M175.91,188.3h4.81a.12.12,0,0,0,.12-.12V167.56a.12.12,0,0,0-.12-.11h-4.81a.11.11,0,0,0-.12.11v20.62A.12.12,0,0,0,175.91,188.3Z"></path><path class="cls-10" d="M182.38,196.61h4.82a.11.11,0,0,0,.11-.12V175.87a.11.11,0,0,0-.11-.11h-4.82a.11.11,0,0,0-.11.11v20.62A.11.11,0,0,0,182.38,196.61Z"></path><path class="cls-10" d="M182.38,174.49h4.82a.11.11,0,0,0,.11-.11v-6.82a.11.11,0,0,0-.11-.11h-4.82a.11.11,0,0,0-.11.11v6.82A.11.11,0,0,0,182.38,174.49Z"></path><path class="cls-10" d="M169.47,174.49h4.82a.11.11,0,0,0,.11-.11v-6.82a.11.11,0,0,0-.11-.11h-4.82a.11.11,0,0,0-.11.11v6.82A.11.11,0,0,0,169.47,174.49Z"></path><path class="cls-10" d="M169.43,196.5h4.82a.11.11,0,0,0,.11-.11V175.76a.11.11,0,0,0-.11-.11h-4.82a.11.11,0,0,0-.11.11v20.63A.11.11,0,0,0,169.43,196.5Z"></path></g><g><path class="cls-10" d="M188.75,218.54h4.82a.11.11,0,0,0,.11-.12V197.8a.11.11,0,0,0-.11-.11h-4.82a.11.11,0,0,0-.11.11v20.62A.11.11,0,0,0,188.75,218.54Z"></path><path class="cls-10" d="M175.8,218.54h4.82a.11.11,0,0,0,.11-.12V197.8a.11.11,0,0,0-.11-.11H175.8a.11.11,0,0,0-.11.11v20.62A.11.11,0,0,0,175.8,218.54Z"></path><path class="cls-10" d="M182.28,226.85h4.81a.12.12,0,0,0,.12-.12V206.11a.11.11,0,0,0-.12-.11h-4.81a.11.11,0,0,0-.12.11v20.62A.12.12,0,0,0,182.28,226.85Z"></path><path class="cls-10" d="M182.28,204.73h4.81a.11.11,0,0,0,.12-.11V197.8a.11.11,0,0,0-.12-.11h-4.81a.11.11,0,0,0-.12.11v6.82A.11.11,0,0,0,182.28,204.73Z"></path><path class="cls-10" d="M169.37,204.73h4.81a.11.11,0,0,0,.12-.11V197.8a.11.11,0,0,0-.12-.11h-4.81a.11.11,0,0,0-.12.11v6.82A.11.11,0,0,0,169.37,204.73Z"></path><path class="cls-10" d="M169.32,226.74h4.82a.11.11,0,0,0,.12-.11V206a.12.12,0,0,0-.12-.11h-4.82a.11.11,0,0,0-.11.11v20.63A.11.11,0,0,0,169.32,226.74Z"></path></g><g><path class="cls-10" d="M188.75,248.83h4.82a.11.11,0,0,0,.11-.12V228.09a.11.11,0,0,0-.11-.11h-4.82a.11.11,0,0,0-.11.11v20.62A.11.11,0,0,0,188.75,248.83Z"></path><path class="cls-10" d="M175.8,248.83h4.82a.11.11,0,0,0,.11-.12V228.09a.11.11,0,0,0-.11-.11H175.8a.11.11,0,0,0-.11.11v20.62A.11.11,0,0,0,175.8,248.83Z"></path><path class="cls-10" d="M182.28,257.14h4.81a.11.11,0,0,0,.12-.11V236.4a.11.11,0,0,0-.12-.11h-4.81a.11.11,0,0,0-.12.11V257A.11.11,0,0,0,182.28,257.14Z"></path><path class="cls-10" d="M182.28,235h4.81a.11.11,0,0,0,.12-.11v-6.82a.11.11,0,0,0-.12-.11h-4.81a.11.11,0,0,0-.12.11v6.82A.11.11,0,0,0,182.28,235Z"></path><path class="cls-10" d="M169.37,235h4.81a.11.11,0,0,0,.12-.11v-6.82a.11.11,0,0,0-.12-.11h-4.81a.11.11,0,0,0-.12.11v6.82A.11.11,0,0,0,169.37,235Z"></path><path class="cls-10" d="M169.32,257h4.82a.11.11,0,0,0,.12-.11V236.3a.12.12,0,0,0-.12-.12h-4.82a.12.12,0,0,0-.11.12v20.62A.11.11,0,0,0,169.32,257Z"></path></g><g><path class="cls-10" d="M188.65,279h4.81a.11.11,0,0,0,.12-.11V258.23a.12.12,0,0,0-.12-.12h-4.81a.12.12,0,0,0-.12.12v20.62A.11.11,0,0,0,188.65,279Z"></path><path class="cls-10" d="M175.69,279h4.82a.11.11,0,0,0,.12-.11V258.23a.12.12,0,0,0-.12-.12h-4.82a.11.11,0,0,0-.11.12v20.62A.11.11,0,0,0,175.69,279Z"></path><path class="cls-10" d="M182.17,287.27H187a.11.11,0,0,0,.11-.11V266.54a.11.11,0,0,0-.11-.12h-4.82a.12.12,0,0,0-.11.12v20.62A.1.1,0,0,0,182.17,287.27Z"></path><path class="cls-10" d="M182.17,265.16H187a.12.12,0,0,0,.11-.12v-6.81a.11.11,0,0,0-.11-.12h-4.82a.11.11,0,0,0-.11.12V265A.11.11,0,0,0,182.17,265.16Z"></path><path class="cls-10" d="M169.26,265.16h4.82a.12.12,0,0,0,.11-.12v-6.81a.11.11,0,0,0-.11-.12h-4.82a.11.11,0,0,0-.11.12V265A.12.12,0,0,0,169.26,265.16Z"></path><path class="cls-10" d="M169.22,287.17H174a.11.11,0,0,0,.11-.12V266.43a.11.11,0,0,0-.11-.11h-4.82a.11.11,0,0,0-.12.11v20.62A.12.12,0,0,0,169.22,287.17Z"></path></g><g><path class="cls-10" d="M188.58,309.12h4.81a.12.12,0,0,0,.12-.12V288.38a.12.12,0,0,0-.12-.11h-4.81a.11.11,0,0,0-.12.11V309A.12.12,0,0,0,188.58,309.12Z"></path><path class="cls-10" d="M175.62,309.12h4.82a.13.13,0,0,0,.12-.12V288.38a.12.12,0,0,0-.12-.11h-4.82a.11.11,0,0,0-.11.11V309A.12.12,0,0,0,175.62,309.12Z"></path><path class="cls-10" d="M182.1,317.43h4.82a.12.12,0,0,0,.11-.12V296.69a.11.11,0,0,0-.11-.11H182.1a.11.11,0,0,0-.11.11v20.62A.12.12,0,0,0,182.1,317.43Z"></path><path class="cls-10" d="M182.1,295.31h4.82a.11.11,0,0,0,.11-.12v-6.81a.11.11,0,0,0-.11-.11H182.1a.11.11,0,0,0-.11.11v6.81A.11.11,0,0,0,182.1,295.31Z"></path><path class="cls-10" d="M169.19,295.31H174a.11.11,0,0,0,.11-.12v-6.81a.11.11,0,0,0-.11-.11h-4.82a.11.11,0,0,0-.11.11v6.81A.11.11,0,0,0,169.19,295.31Z"></path><path class="cls-10" d="M169.15,317.32H174a.11.11,0,0,0,.11-.12V296.58a.11.11,0,0,0-.11-.11h-4.82a.11.11,0,0,0-.12.11V317.2A.12.12,0,0,0,169.15,317.32Z"></path></g><path class="cls-10" d="M175.51,287h4.82a.11.11,0,0,0,.11-.11V280.1a.11.11,0,0,0-.11-.11h-4.82a.11.11,0,0,0-.11.11v6.82A.11.11,0,0,0,175.51,287Z"></path><path class="cls-10" d="M175.44,317.4h4.82a.12.12,0,0,0,.12-.12v-6.81a.12.12,0,0,0-.12-.12h-4.82a.11.11,0,0,0-.11.12v6.81A.12.12,0,0,0,175.44,317.4Z"></path><path class="cls-10" d="M188.51,287.17h4.82a.11.11,0,0,0,.11-.11v-6.82a.11.11,0,0,0-.11-.11h-4.82a.11.11,0,0,0-.11.11v6.82A.11.11,0,0,0,188.51,287.17Z"></path><path class="cls-10" d="M188.44,317.26h4.82a.12.12,0,0,0,.11-.12v-6.81a.11.11,0,0,0-.11-.12h-4.82a.12.12,0,0,0-.11.12v6.81A.11.11,0,0,0,188.44,317.26Z"></path><path class="cls-10" d="M188.76,256.88h4.81a.11.11,0,0,0,.12-.11V250a.11.11,0,0,0-.12-.11h-4.81a.11.11,0,0,0-.12.11v6.82A.11.11,0,0,0,188.76,256.88Z"></path><path class="cls-10" d="M175.58,257h4.82a.12.12,0,0,0,.12-.12v-6.81a.12.12,0,0,0-.12-.12h-4.82a.12.12,0,0,0-.11.12v6.81A.11.11,0,0,0,175.58,257Z"></path><path class="cls-10" d="M175.69,226.8h4.82a.11.11,0,0,0,.11-.11v-6.82a.11.11,0,0,0-.11-.11h-4.82a.11.11,0,0,0-.11.11v6.82A.11.11,0,0,0,175.69,226.8Z"></path><path class="cls-10" d="M188.55,226.7h4.81a.12.12,0,0,0,.12-.12v-6.81a.12.12,0,0,0-.12-.12h-4.81a.12.12,0,0,0-.12.12v6.81A.12.12,0,0,0,188.55,226.7Z"></path><path class="cls-10" d="M188.76,196.4h4.81a.11.11,0,0,0,.12-.11v-6.82a.11.11,0,0,0-.12-.11h-4.81a.11.11,0,0,0-.12.11v6.82A.11.11,0,0,0,188.76,196.4Z"></path><path class="cls-10" d="M175.79,196.51h4.82a.12.12,0,0,0,.12-.12v-6.81a.12.12,0,0,0-.12-.12h-4.82a.12.12,0,0,0-.11.12v6.81A.11.11,0,0,0,175.79,196.51Z"></path></g></g></g></g><g><path class="cls-4" d="M271.34,424.75,49.1,425a8.07,8.07,0,0,0-7.87,8.26h0a8.08,8.08,0,0,0,7.91,8.23l222.23-.25a8.06,8.06,0,0,0,7.87-8.26h0A8.07,8.07,0,0,0,271.34,424.75Z"></path><path class="cls-4" d="M210.8,457.78,49.1,458a8.07,8.07,0,0,0-7.87,8.26h0a8.07,8.07,0,0,0,7.91,8.23l161.7-.24a8.08,8.08,0,0,0,7.87-8.26h0A8.07,8.07,0,0,0,210.8,457.78Z"></path><g><path class="cls-4" d="M262.29,380.89l-206.64.45c-8.21,0-14.85,7-14.83,15.56h0c0,8.58,6.69,15.52,14.9,15.5l206.64-.46c8.21,0,14.85-7,14.83-15.56h0C277.17,387.81,270.5,380.87,262.29,380.89Z"></path><g><path class="cls-4" d="M324.51,380.89l-22.5.45c-8.21,0-14.85,7-14.83,15.56h0c0,8.58,6.69,15.52,14.9,15.5l22.5-.46c8.21,0,14.85-7,14.83-15.56h0C339.39,387.81,332.72,380.87,324.51,380.89Z"></path><path class="cls-4" d="M402.94,380.89l-22.5.45c-8.21,0-14.85,7-14.83,15.56h0c0,8.58,6.69,15.52,14.9,15.5l22.5-.46c8.21,0,14.85-7,14.83-15.56h0C417.83,387.81,411.15,380.87,402.94,380.89Z"></path><text class="cls-11" transform="translate(343.18 404.41)">/</text></g></g><path class="cls-4" d="M50.38,518.79A12.23,12.23,0,0,1,41.5,515a13.32,13.32,0,0,1-3.7-9.26,12.86,12.86,0,0,1,12.55-13.14l108.8-.37h0a12.87,12.87,0,0,1,12.59,13.09c0,7.23-5.62,13.13-12.55,13.14l-108.8.37ZM159.15,493.3l-108.79.37a11.75,11.75,0,0,0-11.44,12,12.22,12.22,0,0,0,3.38,8.49,11.19,11.19,0,0,0,8.11,3.49l108.79-.37a12,12,0,0,0,0-24Z"></path><path class="cls-4" d="M194.36,518.79a12.24,12.24,0,0,1-8.89-3.83,13.5,13.5,0,0,1,0-18.53,12.2,12.2,0,0,1,8.89-3.87l65.49-.37h0a12.87,12.87,0,0,1,12.59,13.09c0,7.23-5.62,13.13-12.55,13.14l-65.49.37Zm65.45-25.49-65.48.37a11.14,11.14,0,0,0-8.09,3.53,12.41,12.41,0,0,0,0,17,11.16,11.16,0,0,0,8.08,3.49h0l65.48-.37a12,12,0,0,0,0-24Z"></path></g></g></g></svg> 